<?xml version="1.0" encoding="utf-8"?>
<svg version="1.0" width="250.000000pt" height="77.000000pt" viewBox="0 0 250.000000 77.000000" preserveAspectRatio="xMidYMid meet" xmlns="http://www.w3.org/2000/svg">
  <g transform="translate(0.000000,77.000000) scale(0.100000,-0.100000)" fill="#000000" stroke="none">
    <path d="M0 385 l0 -385 1250 0 1250 0 0 385 0 385 -1250 0 -1250 0 0 -385z m1060 233 c8 -27 19 -47 24 -45 5 2 17 23 26 47 14 36 23 46 44 48 l26 3 0 -84 c0 -86 -3 -99 -23 -91 -8 3 -11 24 -9 60 5 68 -9 65 -33 -6 -9 -28 -22 -50 -29 -50 -7 0 -23 24 -36 53 l-24 52 -4 -52 c-2 -38 -7 -53 -18 -53 -11 0 -14 18 -14 86 l0 85 28 -3 c23 -2 29 -11 42 -50z m192 -15 l3 -68 32 -3 c27 -3 33 1 38 21 4 14 6 33 5 43 -5 46 1 74 15 74 12 0 15 -14 15 -69 0 -63 -2 -72 -26 -90 -29 -23 -80 -19 -101 7 -19 24 -17 152 2 152 11 0 15 -16 17 -67z m225 10 l38 -57 3 57 c3 48 6 57 22 57 17 0 18 -8 17 -82 -2 -120 -26 -130 -84 -35 l-38 62 -3 -57 c-3 -50 -6 -58 -22 -58 -18 0 -20 7 -20 78 0 43 3 82 7 85 19 19 46 3 80 -50z m-477 -148 c21 -7 50 -53 50 -79 0 -53 -56 -96 -124 -96 l-36 0 0 95 0 94 45 -4 c24 -2 53 -6 65 -10z m108 -86 c-2 -67 -6 -84 -18 -84 -20 0 -28 164 -8 176 23 14 29 -6 26 -92z m109 39 l38 -62 5 57 c3 32 8 57 13 57 4 0 11 0 17 0 8 0 8 -76 1 -172 -1 -5 -9 -8 -19 -8 -11 0 -31 22 -52 59 -19 33 -38 57 -42 55 -5 -3 -8 -30 -8 -60 0 -40 -4 -55 -12 -52 -13 5 -24 148 -14 175 11 28 36 11 73 -49z m260 5 l38 -58 3 58 c2 40 7 57 15 54 8 -2 13 -35 15 -95 2 -83 1 -92 -16 -92 -11 0 -30 21 -51 55 -18 30 -37 55 -42 55 -5 0 -9 -25 -9 -55 0 -42 -3 -55 -15 -55 -12 0 -15 16 -15 88 0 49 3 92 7 95 16 16 34 3 70 -50z m244 46 c16 -8 18 -14 9 -24 -8 -10 -17 -11 -41 -1 -28 10 -33 9 -55 -17 -29 -34 -30 -47 -3 -81 27 -34 72 -33 77 2 3 17 -2 22 -18 22 -34 0 -18 25 18 28 l32 3 0 -50 c0 -49 -1 -50 -35 -57 -74 -14 -125 23 -125 89 0 72 78 120 141 86z m-355 -51 c-3 -29 -5 -70 -5 -90 -1 -27 -5 -38 -16 -38 -12 0 -15 17 -15 90 0 84 1 90 21 90 18 0 20 -5 15 -52z m229 -225 c-66 -6 -74 -14 -30 -29 l40 -12 -40 -3 -40 -2 35 -7 35 -7 -32 -8 c-48 -11 -40 -25 15 -26 38 -1 42 -2 22 -9 -48 -15 -94 -10 -135 15 -36 22 -51 24 -150 25 -60 0 -174 -7 -252 -17 -154 -18 -173 -15 -173 32 0 47 19 50 173 32 78 -10 192 -17 252 -17 93 0 115 3 140 20 24 16 45 20 105 18 41 -1 57 -3 35 -5z" style="fill: rgb(128, 35, 52);"/>
    <path d="M930 385 c0 -51 2 -55 23 -55 28 0 57 29 57 57 0 25 -30 53 -58 53 -20 0 -22 -5 -22 -55z" style="fill: rgb(128, 35, 52);"/>
  </g>
</svg>